<?xml version="1.0" encoding="UTF-8" standalone="no"?>
<svg
   version="1.1"
   height="128"
   width="128"
   id="svg39"
   sodipodi:docname="logo.svg"
   inkscape:version="1.4.1-rc (06eac75fbf, 2025-03-29)"
   inkscape:export-filename="logo.png"
   inkscape:export-xdpi="96"
   inkscape:export-ydpi="96"
   xmlns:inkscape="http://www.inkscape.org/namespaces/inkscape"
   xmlns:sodipodi="http://sodipodi.sourceforge.net/DTD/sodipodi-0.dtd"
   xmlns:xlink="http://www.w3.org/1999/xlink"
   xmlns="http://www.w3.org/2000/svg"
   xmlns:svg="http://www.w3.org/2000/svg">
  <sodipodi:namedview
     id="namedview39"
     pagecolor="#505050"
     bordercolor="#ffffff"
     borderopacity="1"
     inkscape:showpageshadow="0"
     inkscape:pageopacity="0"
     inkscape:pagecheckerboard="1"
     inkscape:deskcolor="#505050"
     inkscape:zoom="2.8284271"
     inkscape:cx="64.346717"
     inkscape:cy="74.246212"
     inkscape:current-layer="svg39"
     showgrid="false"
     showguides="true" />
  <defs
     id="defs39" />
  <g
     id="logo"
     transform="translate(53,53)"
     style="display:none">
    <g
       id="gear"
       mask="none">
      <path
         style="baseline-shift:baseline;display:none;overflow:visible;opacity:1;vector-effect:none;enable-background:accumulate;stop-color:#000000;stop-opacity:1"
         d="m 0,-47.5 c -26.180225,0 -47.5,21.319775 -47.5,47.5 0,26.180225 21.319775,47.5 47.5,47.5 C 26.180225,47.5 47.5,26.180225 47.5,0 47.5,-26.180225 26.180225,-47.5 0,-47.5 Z m 0,9 c 21.316264,0 38.5,17.183736 38.5,38.5 0,21.316264 -17.183736,38.5 -38.5,38.5 -21.316264,0 -38.5,-17.183736 -38.5,-38.5 0,-21.316264 17.183736,-38.5 38.5,-38.5 z"
         id="circle1" />
      <path
         id="use23"
         style="stroke:#000000;stroke-width:3;stroke-linejoin:round"
         d="m -1.5232343,-46.072549 -3.4756399,-4.681872 -2.4954684,5.269975 z" />
      <path
         id="use24"
         style="stroke:#000000;stroke-width:3;stroke-linejoin:round"
         d="m 7.4943426,-45.484446 -2.4954684,-5.269975 -3.4756399,4.681872 z" />
      <path
         id="mount"
         style="display:inline;stroke:#000000;stroke-width:6;stroke-linejoin:round"
         d="m -7,-42 7,7 7,-7 z" />
    </g>
    <circle
       id="circle46"
       cy="-40"
       r="3"
       cx="0" />
    <mask
       id="holes">
      <rect
         x="-60"
         y="-60"
         width="120"
         height="120"
         fill="#ffffff"
         id="rect35" />
      <circle
         id="hole"
         cy="-40"
         r="3"
         cx="0" />
      <use
         xlink:href="#hole"
         transform="rotate(72)"
         id="use36" />
      <use
         xlink:href="#hole"
         transform="rotate(144)"
         id="use37" />
      <use
         xlink:href="#hole"
         transform="rotate(-144)"
         id="use38" />
      <use
         xlink:href="#hole"
         transform="rotate(-72)"
         id="use39" />
    </mask>
  </g>
  <g
     id="g6"
     transform="matrix(10.407519,0,0,10.779419,-652.88346,-153.99407)"
     style="fill:none;stroke:#000000;stroke-width:0.755299;stroke-linecap:butt;stroke-linejoin:miter;stroke-dasharray:none">
    <path
       id="path6"
       style="fill:none;stroke:#000000;stroke-width:0.755299;stroke-linecap:butt;stroke-linejoin:miter;stroke-dasharray:none"
       d="m 75.030704,26.160414 c 0,0 -2.034161,-0.259649 -3.0148,-0.54459 -1.083431,-0.314809 -3.1346,-1.27696 -3.1346,-1.27696 v -1.14707 -1.14707 c 0,0 2.051169,-0.962151 3.1346,-1.27696 0.980639,-0.284941 3.0148,-0.54459 3.0148,-0.54459 0,0 -2.034161,-0.259649 -3.0148,-0.54459 -1.083431,-0.314809 -3.1346,-1.27696 -3.1346,-1.27696 v -1.14707 -1.14707 c 0,0 2.11726,-0.245058 3.1346,-0.54459 1.046928,-0.308243 3.0148,-1.27696 3.0148,-1.27696 m -6.1494,8.90586 v -1.14707 c 0,0 -2.051169,-0.962151 -3.1346,-1.27696 -0.980639,-0.284941 -3.014802,-0.54459 -3.014802,-0.54459 0,0 2.034163,-0.259649 3.014802,-0.54459 1.083431,-0.314809 3.1346,-1.27696 3.1346,-1.27696 v -1.14707 -1.14707 c 0,0 -2.11726,-0.245058 -3.1346,-0.54459 -1.046928,-0.308243 -3.0148,-1.27696 -3.0148,-1.27696"
       sodipodi:nodetypes="cscccscscccscccscscccsc" />
  </g>
</svg>
